<svg width="57" height="57" viewBox="0 0 57 57" fill="none" xmlns="http://www.w3.org/2000/svg">
<path d="M44.4589 0H12.2586C5.48834 0 0 5.51568 0 12.3196V44.6804C0 51.4843 5.48834 57 12.2586 57H44.4589C51.2292 57 56.7175 51.4843 56.7175 44.6804V12.3196C56.7175 5.51568 51.2292 0 44.4589 0Z" fill="#2C0D0E"/>
<path d="M42.5511 20.001C44.4886 20.001 46.0593 18.4225 46.0593 16.4753C46.0593 14.5282 44.4886 12.9497 42.5511 12.9497C40.6136 12.9497 39.043 14.5282 39.043 16.4753C39.043 18.4225 40.6136 20.001 42.5511 20.001Z" fill="#F49819"/>
<path d="M45.3391 22.186H39.6633C39.5602 22.186 39.4766 22.2701 39.4766 22.3737V43.8627C39.4766 43.9663 39.5602 44.0503 39.6633 44.0503H45.3391C45.4422 44.0503 45.5258 43.9663 45.5258 43.8627V22.3737C45.5258 22.2701 45.4422 22.186 45.3391 22.186Z" fill="#F49819"/>
<path d="M26.151 15.1013H18.9012C18.9946 16.5357 18.5877 17.7824 18.5877 17.7824L9.77732 43.3131C9.67728 43.608 9.89738 43.923 10.2108 43.923H10.5843L15.2463 43.9365C15.4464 43.9365 15.6198 43.8091 15.6798 43.6147L17.734 37.1064L27.8517 37.1399L30.026 43.6281C30.086 43.8158 30.2594 43.9432 30.4595 43.9432H35.9885C36.302 43.9432 36.5221 43.6281 36.422 43.3332L26.5845 15.4163C26.5178 15.2354 26.3444 15.108 26.151 15.108V15.1013ZM19.2814 31.5565C19.2814 31.5565 22.4294 21.8242 22.6762 20.1418L26.211 31.5565H19.2814Z" fill="#F49819"/>
</svg>
