<svg width="57" height="57" viewBox="0 0 57 57" fill="none" xmlns="http://www.w3.org/2000/svg">
<rect x="0.326172" y="0.928467" width="30.6667" height="32" rx="15.3333" fill="#DEEFCC"/>
<rect x="0.326172" y="26.2617" width="30.6667" height="30.6667" rx="15.3333" fill="#DEEFCC"/>
<rect x="24.3257" y="0.928467" width="32" height="32" rx="16" fill="#DEEFCC"/>
<path d="M24.3257 26.2617H40.9923C49.4607 26.2617 56.3257 33.1267 56.3257 41.595C56.3257 50.0634 49.4607 56.9284 40.9923 56.9284H40.18C31.4239 56.9284 24.3257 49.8302 24.3257 41.0741V26.2617Z" fill="#DEEFCC"/>
<path d="M20.5819 34.0776C19.8195 34.0776 19.165 33.9102 18.6181 33.5755C18.0745 33.2407 17.6552 32.7784 17.3603 32.1884C17.0686 31.5951 16.9228 30.9124 16.9228 30.1401C16.9228 29.3645 17.0719 28.6801 17.3702 28.0868C17.6685 27.4903 18.0894 27.0262 18.633 26.6948C19.1799 26.36 19.8262 26.1927 20.5719 26.1927C21.1917 26.1927 21.7402 26.307 22.2175 26.5357C22.6981 26.7611 23.0809 27.0809 23.3659 27.4952C23.651 27.9062 23.8134 28.3868 23.8532 28.937H22.133C22.0634 28.5691 21.8977 28.2625 21.6358 28.0172C21.3773 27.7687 21.031 27.6444 20.5968 27.6444C20.2289 27.6444 19.9057 27.7438 19.6273 27.9427C19.3489 28.1382 19.1318 28.4199 18.976 28.7878C18.8236 29.1557 18.7473 29.5966 18.7473 30.1103C18.7473 30.6306 18.8236 31.0781 18.976 31.4526C19.1285 31.8238 19.3423 32.1105 19.6174 32.3127C19.8958 32.5116 20.2222 32.611 20.5968 32.611C20.8619 32.611 21.0989 32.5613 21.3077 32.4618C21.5198 32.3591 21.6971 32.2116 21.8397 32.0194C21.9822 31.8271 22.08 31.5935 22.133 31.3184H23.8532C23.8101 31.8586 23.651 32.3376 23.3759 32.7552C23.1008 33.1695 22.7263 33.4943 22.2523 33.7296C21.7784 33.9616 21.2215 34.0776 20.5819 34.0776ZM31.3665 28.3106L29.7259 28.4895C29.6795 28.3238 29.5982 28.1681 29.4822 28.0222C29.3696 27.8764 29.2171 27.7587 29.0249 27.6692C28.8326 27.5797 28.5973 27.535 28.3189 27.535C27.9444 27.535 27.6295 27.6162 27.3743 27.7786C27.1224 27.941 26.9981 28.1515 27.0014 28.41C26.9981 28.6321 27.0793 28.8127 27.245 28.9519C27.4141 29.0911 27.6925 29.2055 28.0803 29.2949L29.3828 29.5734C30.1054 29.7291 30.6423 29.9761 30.9936 30.3141C31.3482 30.6522 31.5272 31.0947 31.5305 31.6415C31.5272 32.1221 31.3864 32.5464 31.108 32.9143C30.8329 33.2788 30.45 33.5639 29.9595 33.7694C29.469 33.9749 28.9055 34.0776 28.2692 34.0776C27.3345 34.0776 26.5821 33.8821 26.0121 33.491C25.442 33.0966 25.1023 32.548 24.9929 31.8454L26.7479 31.6763C26.8274 32.021 26.9964 32.2812 27.255 32.4569C27.5135 32.6325 27.8499 32.7204 28.2642 32.7204C28.6918 32.7204 29.0348 32.6325 29.2933 32.4569C29.5552 32.2812 29.6861 32.0641 29.6861 31.8056C29.6861 31.5868 29.6016 31.4062 29.4325 31.2637C29.2668 31.1212 29.0083 31.0118 28.657 30.9356L27.3544 30.6621C26.6219 30.5097 26.08 30.2528 25.7287 29.8915C25.3774 29.527 25.2034 29.0663 25.2067 28.5094C25.2034 28.0388 25.331 27.6311 25.5895 27.2864C25.8513 26.9384 26.2143 26.6699 26.6783 26.481C27.1456 26.2888 27.6842 26.1927 28.294 26.1927C29.1889 26.1927 29.8932 26.3832 30.407 26.7644C30.924 27.1456 31.2438 27.6609 31.3665 28.3106ZM39.0501 28.3106L37.4094 28.4895C37.363 28.3238 37.2818 28.1681 37.1658 28.0222C37.0531 27.8764 36.9007 27.7587 36.7085 27.6692C36.5162 27.5797 36.2809 27.535 36.0025 27.535C35.628 27.535 35.3131 27.6162 35.0579 27.7786C34.806 27.941 34.6817 28.1515 34.685 28.41C34.6817 28.6321 34.7629 28.8127 34.9286 28.9519C35.0977 29.0911 35.3761 29.2055 35.7638 29.2949L37.0664 29.5734C37.7889 29.7291 38.3259 29.9761 38.6772 30.3141C39.0318 30.6522 39.2108 31.0947 39.2141 31.6415C39.2108 32.1221 39.07 32.5464 38.7915 32.9143C38.5165 33.2788 38.1336 33.5639 37.6431 33.7694C37.1526 33.9749 36.5891 34.0776 35.9528 34.0776C35.0181 34.0776 34.2657 33.8821 33.6957 33.491C33.1256 33.0966 32.7859 32.548 32.6765 31.8454L34.4315 31.6763C34.511 32.021 34.68 32.2812 34.9386 32.4569C35.1971 32.6325 35.5335 32.7204 35.9478 32.7204C36.3754 32.7204 36.7184 32.6325 36.9769 32.4569C37.2388 32.2812 37.3697 32.0641 37.3697 31.8056C37.3697 31.5868 37.2852 31.4062 37.1161 31.2637C36.9504 31.1212 36.6919 31.0118 36.3406 30.9356L35.038 30.6621C34.3055 30.5097 33.7636 30.2528 33.4123 29.8915C33.061 29.527 32.887 29.0663 32.8903 28.5094C32.887 28.0388 33.0146 27.6311 33.2731 27.2864C33.5349 26.9384 33.8978 26.6699 34.3619 26.481C34.8292 26.2888 35.3678 26.1927 35.9776 26.1927C36.8725 26.1927 37.5768 26.3832 38.0906 26.7644C38.6076 27.1456 38.9274 27.6609 39.0501 28.3106Z" fill="black"/>
</svg>
