<svg width="57" height="57" viewBox="0 0 57 57" fill="none" xmlns="http://www.w3.org/2000/svg">
<path d="M46.9114 0H10.0953C4.51525 0 0 4.62982 0 10.3514V46.6486C0 52.3702 4.51525 57 10.0953 57H46.9114C52.4915 57 57.0067 52.3702 57.0067 46.6486V10.3514C57.0067 4.62982 52.4915 0 46.9114 0Z" fill="#122035"/>
<path d="M35.1118 8H21.721C17.9767 8 14.9414 11.0353 14.9414 14.7796C14.9414 18.5239 17.9767 21.5592 21.721 21.5592H35.1118C38.8561 21.5592 41.8914 18.5239 41.8914 14.7796C41.8914 11.0353 38.8561 8 35.1118 8Z" fill="#F68E8E"/>
<path d="M21.8089 21.7203C18.0619 21.7203 15.0293 24.753 15.0293 28.5C15.0293 32.2469 18.0619 35.2796 21.8089 35.2796H28.5077V21.7203H21.8089Z" fill="#A762B2"/>
<path d="M21.7806 8C18.0336 8 15.001 11.0326 15.001 14.7796C15.001 18.5266 18.0336 21.5592 21.7806 21.5592H28.4793V8H21.7806Z" fill="#D87A7A"/>
<path d="M35.2806 35.2796C39.0249 35.2796 42.0602 32.2442 42.0602 28.5C42.0602 24.7557 39.0249 21.7203 35.2806 21.7203C31.5363 21.7203 28.501 24.7557 28.501 28.5C28.501 32.2442 31.5363 35.2796 35.2806 35.2796Z" fill="#7BB9E6"/>
<path d="M28.5002 41.3111V35.2795H21.8015C21.8015 35.2795 21.788 35.2795 21.7813 35.2795C21.7745 35.2795 21.7678 35.2795 21.7611 35.2795C18.0141 35.2795 14.9814 38.3122 14.9814 42.0592C14.9814 45.8061 18.0141 48.8388 21.7611 48.8388C21.7678 48.8388 21.7745 48.8388 21.7813 48.8388C25.2654 48.8253 28.1229 46.197 28.5002 42.8072C28.5272 42.5579 28.5407 42.3085 28.5407 42.0592C28.5407 41.8098 28.5272 41.5537 28.5002 41.3111Z" fill="#9DE7A0"/>
</svg>
