<svg width="57" height="58" viewBox="0 0 57 58" fill="none" xmlns="http://www.w3.org/2000/svg">
<rect y="0.928467" width="57" height="57" rx="28.5" fill="#FFDDDD"/>
<path d="M15.7244 30.454V34.9285H13.9247V24.7466H15.6847V28.5897H15.7741C15.9531 28.1588 16.2299 27.8191 16.6044 27.5705C16.9822 27.3186 17.4628 27.1927 18.0462 27.1927C18.5765 27.1927 19.0388 27.3037 19.4332 27.5258C19.8277 27.7478 20.1326 28.0726 20.348 28.5002C20.5668 28.9278 20.6761 29.4498 20.6761 30.0663V34.9285H18.8764V30.3447C18.8764 29.8309 18.7438 29.4315 18.4787 29.1465C18.2169 28.8582 17.849 28.714 17.375 28.714C17.0568 28.714 16.7718 28.7836 16.5199 28.9228C16.2713 29.0587 16.0758 29.2559 15.9332 29.5144C15.794 29.7729 15.7244 30.0861 15.7244 30.454ZM26.3239 27.2921V28.6841H21.9339V27.2921H26.3239ZM23.0178 25.4626H24.8175V32.6316C24.8175 32.8735 24.8539 33.0591 24.9268 33.1884C25.0031 33.3144 25.1025 33.4005 25.2251 33.4469C25.3478 33.4933 25.4837 33.5165 25.6328 33.5165C25.7455 33.5165 25.8482 33.5082 25.9411 33.4917C26.0372 33.4751 26.1101 33.4602 26.1598 33.4469L26.4631 34.8539C26.367 34.887 26.2294 34.9235 26.0504 34.9633C25.8748 35.003 25.6593 35.0262 25.4041 35.0329C24.9534 35.0461 24.5473 34.9782 24.1861 34.829C23.8248 34.6766 23.5381 34.4413 23.326 34.1231C23.1172 33.8049 23.0144 33.4072 23.0178 32.9299V25.4626ZM27.829 34.9285V27.2921H29.5492V28.5897H29.6387C29.7978 28.1522 30.0613 27.8108 30.4292 27.5655C30.7971 27.317 31.2362 27.1927 31.7466 27.1927C32.2637 27.1927 32.6995 27.3186 33.0542 27.5705C33.4121 27.8191 33.664 28.1588 33.8098 28.5897H33.8894C34.0584 28.1654 34.3435 27.8274 34.7445 27.5755C35.1489 27.3203 35.6278 27.1927 36.1813 27.1927C36.8839 27.1927 37.4573 27.4147 37.9015 27.8589C38.3456 28.303 38.5676 28.951 38.5676 29.8028V34.9285H36.763V30.0812C36.763 29.6072 36.637 29.2609 36.3851 29.0421C36.1332 28.82 35.825 28.709 35.4604 28.709C35.0262 28.709 34.6865 28.8449 34.4412 29.1167C34.1993 29.3851 34.0783 29.7348 34.0783 30.1657V34.9285H32.3134V30.0066C32.3134 29.6122 32.1941 29.2973 31.9554 29.062C31.7201 28.8267 31.4119 28.709 31.0307 28.709C30.7722 28.709 30.5369 28.7753 30.3248 28.9079C30.1126 29.0371 29.9436 29.2211 29.8176 29.4597C29.6917 29.695 29.6287 29.9701 29.6287 30.285V34.9285H27.829ZM42.1932 24.7466V34.9285H40.3935V24.7466H42.1932Z" fill="black"/>
</svg>
