<svg width="57" height="57" viewBox="0 0 57 57" fill="none" xmlns="http://www.w3.org/2000/svg">
<path d="M44.4589 0H12.2585C5.48833 0 0 5.51568 0 12.3196V44.6804C0 51.4843 5.48833 57 12.2585 57H44.4589C51.2291 57 56.7175 51.4843 56.7175 44.6804V12.3196C56.7175 5.51568 51.2291 0 44.4589 0Z" fill="#450B21"/>
<path d="M18.9412 15.2218H13.3389C13.1657 15.2218 13.0254 15.3628 13.0254 15.5368V43.8693C13.0254 44.0432 13.1657 44.1843 13.3389 44.1843H18.9412C19.1144 44.1843 19.2547 44.0432 19.2547 43.8693V15.5368C19.2547 15.3628 19.1144 15.2218 18.9412 15.2218Z" fill="#E83C69"/>
<path d="M37.4623 13.0032V21.7704C37.1088 21.7436 36.7486 21.7302 36.3885 21.7302C28.0916 21.7302 23.3096 26.8846 23.3096 33.2522C23.3096 39.6198 27.458 44.7742 36.3885 44.7742C39.083 44.7742 41.5907 44.057 43.6782 42.8237C43.6782 42.8237 43.6982 42.8036 43.6982 42.7902V13.0032C43.6982 12.7418 43.4848 12.5273 43.2247 12.5273H37.9358C37.6757 12.5273 37.4623 12.7418 37.4623 13.0032ZM37.4623 38.9562C36.9354 39.097 36.3818 39.1707 35.8149 39.1707C32.3868 39.1707 29.6056 36.4427 29.6056 33.0779C29.6056 29.7131 32.3868 26.9851 35.8149 26.9851C36.3885 26.9851 36.9354 27.0589 37.4623 27.1996V38.9495V38.9562Z" fill="#E83C69"/>
</svg>
