<svg width="78" height="78" viewBox="0 0 78 78" fill="none" xmlns="http://www.w3.org/2000/svg">
<rect x="78" y="38.9995" width="55.1551" height="55.1551" rx="10" transform="rotate(135 78 38.9995)" fill="#F0DAEE"/>
<path d="M16.5945 33.0909H17.7514V38.2812C17.7514 38.6349 17.6843 38.9268 17.5501 39.157C17.4158 39.3871 17.2219 39.5586 16.9684 39.6715C16.7148 39.7844 16.407 39.8409 16.0447 39.8409C16.0021 39.8409 15.9627 39.8398 15.9265 39.8377C15.8903 39.8377 15.8509 39.8366 15.8082 39.8345V38.8917C15.8402 38.8938 15.869 38.8949 15.8945 38.8949C15.9201 38.897 15.9467 38.8981 15.9744 38.8981C16.196 38.8981 16.3548 38.8438 16.4506 38.7351C16.5465 38.6286 16.5945 38.4719 16.5945 38.2653V33.0909ZM17.1697 32.3942C16.9844 32.3942 16.8256 32.3335 16.6935 32.212C16.5636 32.0884 16.4986 31.9403 16.4986 31.7678C16.4986 31.593 16.5636 31.445 16.6935 31.3235C16.8256 31.1999 16.9844 31.1381 17.1697 31.1381C17.353 31.1381 17.5096 31.1999 17.6396 31.3235C17.7717 31.445 17.8377 31.593 17.8377 31.7678C17.8377 31.9403 17.7717 32.0884 17.6396 32.212C17.5096 32.3335 17.353 32.3942 17.1697 32.3942ZM20.3538 38.0991C20.0427 38.0991 19.7625 38.0437 19.5132 37.9329C19.2661 37.82 19.07 37.6538 18.9252 37.4343C18.7824 37.2148 18.711 36.9442 18.711 36.6225C18.711 36.3455 18.7622 36.1165 18.8644 35.9354C18.9667 35.7543 19.1063 35.6094 19.2831 35.5007C19.46 35.392 19.6592 35.31 19.8808 35.2546C20.1045 35.1971 20.3357 35.1555 20.5743 35.13C20.8619 35.1001 21.0953 35.0735 21.2742 35.0501C21.4532 35.0245 21.5832 34.9862 21.6642 34.935C21.7472 34.8817 21.7888 34.7997 21.7888 34.6889V34.6697C21.7888 34.429 21.7174 34.2425 21.5747 34.1104C21.4319 33.9783 21.2263 33.9123 20.9578 33.9123C20.6744 33.9123 20.4497 33.9741 20.2835 34.0977C20.1194 34.2212 20.0086 34.3672 19.9511 34.5355L18.8708 34.3821C18.9561 34.0838 19.0967 33.8345 19.2927 33.6342C19.4887 33.4318 19.7284 33.2805 20.0118 33.1804C20.2952 33.0781 20.6084 33.027 20.9514 33.027C21.1879 33.027 21.4234 33.0547 21.6578 33.1101C21.8921 33.1655 22.1063 33.2571 22.3002 33.3849C22.4941 33.5107 22.6496 33.6822 22.7668 33.8995C22.8861 34.1168 22.9458 34.3885 22.9458 34.7145V38H21.8335V37.3256H21.7952C21.7249 37.462 21.6258 37.5898 21.498 37.7092C21.3722 37.8263 21.2135 37.9212 21.0218 37.9936C20.8321 38.0639 20.6095 38.0991 20.3538 38.0991ZM20.6542 37.2489C20.8865 37.2489 21.0878 37.2031 21.2583 37.1115C21.4287 37.0178 21.5597 36.8942 21.6514 36.7408C21.7451 36.5874 21.792 36.4201 21.792 36.239V35.6605C21.7558 35.6903 21.694 35.718 21.6066 35.7436C21.5214 35.7692 21.4255 35.7915 21.319 35.8107C21.2124 35.8299 21.107 35.8469 21.0026 35.8619C20.8982 35.8768 20.8076 35.8896 20.7309 35.9002C20.5583 35.9237 20.4039 35.962 20.2675 36.0153C20.1311 36.0685 20.0235 36.1431 19.9447 36.239C19.8659 36.3327 19.8264 36.4542 19.8264 36.6033C19.8264 36.8164 19.9042 36.9773 20.0597 37.0859C20.2153 37.1946 20.4134 37.2489 20.6542 37.2489ZM28.3183 33.0909L26.57 38H25.2916L23.5434 33.0909H24.7771L25.9053 36.7376H25.9564L27.0878 33.0909H28.3183ZM30.3909 38.0991C30.0798 38.0991 29.7996 38.0437 29.5503 37.9329C29.3032 37.82 29.1072 37.6538 28.9623 37.4343C28.8195 37.2148 28.7481 36.9442 28.7481 36.6225C28.7481 36.3455 28.7993 36.1165 28.9015 35.9354C29.0038 35.7543 29.1434 35.6094 29.3202 35.5007C29.4971 35.392 29.6963 35.31 29.9179 35.2546C30.1416 35.1971 30.3728 35.1555 30.6114 35.13C30.8991 35.1001 31.1324 35.0735 31.3113 35.0501C31.4903 35.0245 31.6203 34.9862 31.7013 34.935C31.7844 34.8817 31.8259 34.7997 31.8259 34.6889V34.6697C31.8259 34.429 31.7545 34.2425 31.6118 34.1104C31.469 33.9783 31.2634 33.9123 30.9949 33.9123C30.7116 33.9123 30.4868 33.9741 30.3206 34.0977C30.1565 34.2212 30.0457 34.3672 29.9882 34.5355L28.9079 34.3821C28.9932 34.0838 29.1338 33.8345 29.3298 33.6342C29.5258 33.4318 29.7655 33.2805 30.0489 33.1804C30.3323 33.0781 30.6455 33.027 30.9885 33.027C31.2251 33.027 31.4605 33.0547 31.6949 33.1101C31.9292 33.1655 32.1434 33.2571 32.3373 33.3849C32.5312 33.5107 32.6867 33.6822 32.8039 33.8995C32.9232 34.1168 32.9829 34.3885 32.9829 34.7145V38H31.8707V37.3256H31.8323C31.762 37.462 31.6629 37.5898 31.5351 37.7092C31.4094 37.8263 31.2506 37.9212 31.0589 37.9936C30.8692 38.0639 30.6466 38.0991 30.3909 38.0991ZM30.6913 37.2489C30.9236 37.2489 31.1249 37.2031 31.2954 37.1115C31.4658 37.0178 31.5969 36.8942 31.6885 36.7408C31.7822 36.5874 31.8291 36.4201 31.8291 36.239V35.6605C31.7929 35.6903 31.7311 35.718 31.6437 35.7436C31.5585 35.7692 31.4626 35.7915 31.3561 35.8107C31.2496 35.8299 31.1441 35.8469 31.0397 35.8619C30.9353 35.8768 30.8447 35.8896 30.768 35.9002C30.5954 35.9237 30.441 35.962 30.3046 36.0153C30.1682 36.0685 30.0606 36.1431 29.9818 36.239C29.903 36.3327 29.8635 36.4542 29.8635 36.6033C29.8635 36.8164 29.9413 36.9773 30.0969 37.0859C30.2524 37.1946 30.4506 37.2489 30.6913 37.2489ZM38.0262 34.3885L36.9715 34.5036C36.9417 34.397 36.8895 34.2969 36.8149 34.2031C36.7425 34.1094 36.6444 34.0337 36.5209 33.9762C36.3973 33.9187 36.246 33.8899 36.067 33.8899C35.8263 33.8899 35.6238 33.9421 35.4598 34.0465C35.2979 34.1509 35.218 34.2862 35.2201 34.4524C35.218 34.5952 35.2702 34.7113 35.3767 34.8008C35.4854 34.8903 35.6643 34.9638 35.9136 35.0213L36.751 35.2003C37.2155 35.3004 37.5606 35.4592 37.7865 35.6765C38.0145 35.8938 38.1295 36.1783 38.1317 36.5298C38.1295 36.8388 38.039 37.1115 37.86 37.348C37.6831 37.5824 37.4371 37.7656 37.1217 37.8977C36.8064 38.0298 36.4442 38.0959 36.0351 38.0959C35.4342 38.0959 34.9506 37.9702 34.5841 37.7188C34.2176 37.4652 33.9992 37.1126 33.9289 36.6609L35.0571 36.5522C35.1082 36.7738 35.2169 36.9411 35.3831 37.054C35.5493 37.1669 35.7655 37.2234 36.0319 37.2234C36.3067 37.2234 36.5273 37.1669 36.6934 37.054C36.8618 36.9411 36.9459 36.8015 36.9459 36.6353C36.9459 36.4947 36.8916 36.3786 36.7829 36.2869C36.6764 36.1953 36.5102 36.125 36.2844 36.076L35.447 35.9002C34.9761 35.8022 34.6278 35.6371 34.4019 35.4048C34.176 35.1705 34.0642 34.8743 34.0663 34.5163C34.0642 34.2138 34.1462 33.9517 34.3124 33.7301C34.4807 33.5064 34.714 33.3338 35.0123 33.2124C35.3128 33.0888 35.659 33.027 36.051 33.027C36.6263 33.027 37.0791 33.1495 37.4094 33.3945C37.7417 33.6396 37.9474 33.9709 38.0262 34.3885ZM41.227 38.0959C40.7369 38.0959 40.3161 37.9883 39.9646 37.7731C39.6151 37.5579 39.3456 37.2607 39.156 36.8814C38.9685 36.5 38.8747 36.0611 38.8747 35.5646C38.8747 35.0661 38.9706 34.6261 39.1624 34.2447C39.3541 33.8612 39.6247 33.5629 39.9742 33.3498C40.3257 33.1346 40.7412 33.027 41.2206 33.027C41.6191 33.027 41.9717 33.1005 42.2785 33.2475C42.5874 33.3924 42.8335 33.598 43.0168 33.8643C43.2 34.1286 43.3044 34.4375 43.33 34.7912H42.2242C42.1794 34.5547 42.0729 34.3576 41.9046 34.1999C41.7384 34.0401 41.5157 33.9602 41.2366 33.9602C41.0001 33.9602 40.7923 34.0241 40.6134 34.152C40.4344 34.2777 40.2948 34.4588 40.1947 34.6953C40.0967 34.9318 40.0477 35.2152 40.0477 35.5455C40.0477 35.88 40.0967 36.1676 40.1947 36.4084C40.2927 36.647 40.4301 36.8313 40.607 36.9613C40.786 37.0891 40.9958 37.1531 41.2366 37.1531C41.407 37.1531 41.5594 37.1211 41.6936 37.0572C41.83 36.9911 41.944 36.8963 42.0356 36.7727C42.1272 36.6491 42.1901 36.4989 42.2242 36.3221H43.33C43.3023 36.6694 43.2 36.9773 43.0232 37.2457C42.8463 37.5121 42.6056 37.7209 42.3009 37.8722C41.9962 38.0213 41.6382 38.0959 41.227 38.0959ZM44.28 38V33.0909H45.4018V33.9091H45.4529C45.5424 33.6257 45.6958 33.4073 45.9132 33.2539C46.1326 33.0984 46.383 33.0206 46.6642 33.0206C46.7282 33.0206 46.7995 33.0238 46.8784 33.0302C46.9593 33.0344 47.0265 33.0419 47.0797 33.0526V34.1168C47.0307 34.0998 46.9529 34.0849 46.8464 34.0721C46.742 34.0572 46.6408 34.0497 46.5428 34.0497C46.3319 34.0497 46.1422 34.0955 45.9739 34.1871C45.8077 34.2766 45.6767 34.4013 45.5808 34.5611C45.4849 34.7209 45.437 34.9052 45.437 35.114V38H44.28ZM47.8484 38V33.0909H49.0053V38H47.8484ZM48.43 32.3942C48.2468 32.3942 48.0891 32.3335 47.957 32.212C47.8249 32.0884 47.7589 31.9403 47.7589 31.7678C47.7589 31.593 47.8249 31.445 47.957 31.3235C48.0891 31.1999 48.2468 31.1381 48.43 31.1381C48.6154 31.1381 48.7731 31.1999 48.9031 31.3235C49.0352 31.445 49.1012 31.593 49.1012 31.7678C49.1012 31.9403 49.0352 32.0884 48.9031 32.212C48.7731 32.3335 48.6154 32.3942 48.43 32.3942ZM50.195 39.8409V33.0909H51.3328V33.9027H51.3999C51.4596 33.7834 51.5438 33.6566 51.6524 33.5224C51.7611 33.386 51.9081 33.2699 52.0935 33.174C52.2789 33.076 52.5154 33.027 52.803 33.027C53.1823 33.027 53.5242 33.1239 53.8289 33.3178C54.1357 33.5096 54.3786 33.794 54.5576 34.1712C54.7387 34.5462 54.8293 35.0064 54.8293 35.5518C54.8293 36.0909 54.7409 36.549 54.564 36.9261C54.3872 37.3033 54.1464 37.5909 53.8417 37.7891C53.537 37.9872 53.1919 38.0863 52.8062 38.0863C52.5249 38.0863 52.2916 38.0394 52.1063 37.9457C51.9209 37.8519 51.7718 37.739 51.6588 37.6069C51.548 37.4727 51.4617 37.3459 51.3999 37.2266H51.352V39.8409H50.195ZM51.3296 35.5455C51.3296 35.8629 51.3744 36.141 51.4639 36.3796C51.5555 36.6183 51.6865 36.8047 51.857 36.9389C52.0296 37.071 52.2384 37.1371 52.4834 37.1371C52.7391 37.1371 52.9532 37.0689 53.1258 36.9325C53.2984 36.794 53.4284 36.6055 53.5157 36.3668C53.6052 36.1261 53.6499 35.8523 53.6499 35.5455C53.6499 35.2408 53.6063 34.9702 53.5189 34.7337C53.4316 34.4972 53.3016 34.3118 53.129 34.1776C52.9564 34.0433 52.7412 33.9762 52.4834 33.9762C52.2362 33.9762 52.0264 34.0412 51.8538 34.1712C51.6812 34.3011 51.5502 34.4833 51.4607 34.7177C51.3733 34.9521 51.3296 35.228 51.3296 35.5455ZM58.2714 33.0909V33.9858H55.4493V33.0909H58.2714ZM56.146 31.9148H57.303V36.5234C57.303 36.679 57.3264 36.7983 57.3733 36.8814C57.4223 36.9624 57.4862 37.0178 57.5651 37.0476C57.6439 37.0774 57.7313 37.0923 57.8271 37.0923C57.8996 37.0923 57.9656 37.087 58.0253 37.0763C58.0871 37.0657 58.134 37.0561 58.1659 37.0476L58.3609 37.9521C58.2991 37.9734 58.2107 37.9968 58.0956 38.0224C57.9827 38.0479 57.8442 38.0629 57.6801 38.0671C57.3904 38.0756 57.1294 38.032 56.8971 37.9361C56.6649 37.8381 56.4806 37.6868 56.3442 37.4822C56.21 37.2777 56.1439 37.022 56.146 36.7152V31.9148ZM61.9109 31.1477L59.8015 38.9844H58.7884L60.8977 31.1477H61.9109ZM16.5945 43.0909H17.7514V48.2812C17.7514 48.6349 17.6843 48.9268 17.5501 49.157C17.4158 49.3871 17.2219 49.5586 16.9684 49.6715C16.7148 49.7844 16.407 49.8409 16.0447 49.8409C16.0021 49.8409 15.9627 49.8398 15.9265 49.8377C15.8903 49.8377 15.8509 49.8366 15.8082 49.8345V48.8917C15.8402 48.8938 15.869 48.8949 15.8945 48.8949C15.9201 48.897 15.9467 48.8981 15.9744 48.8981C16.196 48.8981 16.3548 48.8438 16.4506 48.7351C16.5465 48.6286 16.5945 48.4719 16.5945 48.2653V43.0909ZM17.1697 42.3942C16.9844 42.3942 16.8256 42.3335 16.6935 42.212C16.5636 42.0884 16.4986 41.9403 16.4986 41.7678C16.4986 41.593 16.5636 41.445 16.6935 41.3235C16.8256 41.1999 16.9844 41.1381 17.1697 41.1381C17.353 41.1381 17.5096 41.1999 17.6396 41.3235C17.7717 41.445 17.8377 41.593 17.8377 41.7678C17.8377 41.9403 17.7717 42.0884 17.6396 42.212C17.5096 42.3335 17.353 42.3942 17.1697 42.3942ZM22.2171 49.8409V47.2266H22.1691C22.1095 47.3459 22.0232 47.4727 21.9102 47.6069C21.7973 47.739 21.6482 47.8519 21.4628 47.9457C21.2774 48.0394 21.0441 48.0863 20.7629 48.0863C20.3772 48.0863 20.032 47.9872 19.7274 47.7891C19.4227 47.5909 19.1819 47.3033 19.0051 46.9261C18.8282 46.549 18.7398 46.0909 18.7398 45.5518C18.7398 45.0064 18.8293 44.5462 19.0083 44.1712C19.1894 43.794 19.4333 43.5096 19.7401 43.3178C20.047 43.1239 20.3889 43.027 20.7661 43.027C21.0537 43.027 21.2902 43.076 21.4756 43.174C21.661 43.2699 21.808 43.386 21.9166 43.5224C22.0253 43.6566 22.1095 43.7834 22.1691 43.9027H22.2394V43.0909H23.3772V49.8409H22.2171ZM21.0857 47.1371C21.3307 47.1371 21.5395 47.071 21.7121 46.9389C21.8847 46.8047 22.0157 46.6183 22.1052 46.3796C22.1947 46.141 22.2394 45.8629 22.2394 45.5455C22.2394 45.228 22.1947 44.9521 22.1052 44.7177C22.0178 44.4833 21.8879 44.3011 21.7153 44.1712C21.5448 44.0412 21.335 43.9762 21.0857 43.9762C20.8279 43.9762 20.6127 44.0433 20.4401 44.1776C20.2675 44.3118 20.1375 44.4972 20.0502 44.7337C19.9628 44.9702 19.9191 45.2408 19.9191 45.5455C19.9191 45.8523 19.9628 46.1261 20.0502 46.3668C20.1396 46.6055 20.2707 46.794 20.4433 46.9325C20.618 47.0689 20.8321 47.1371 21.0857 47.1371ZM27.695 45.9354V43.0909H28.852V48H27.7302V47.1275H27.6791C27.5683 47.4023 27.3861 47.6271 27.1325 47.8018C26.8811 47.9766 26.5711 48.0639 26.2025 48.0639C25.8808 48.0639 25.5963 47.9925 25.3492 47.8498C25.1041 47.7049 24.9124 47.495 24.7739 47.2202C24.6354 46.9432 24.5661 46.6087 24.5661 46.2166V43.0909H25.7231V46.0376C25.7231 46.3487 25.8083 46.5959 25.9788 46.7791C26.1492 46.9624 26.373 47.054 26.6499 47.054C26.8204 47.054 26.9855 47.0124 27.1453 46.9293C27.3051 46.8462 27.4362 46.7227 27.5384 46.5586C27.6428 46.3924 27.695 46.1847 27.695 45.9354ZM32.215 48.0959C31.7228 48.0959 31.2978 47.9936 30.9398 47.7891C30.584 47.5824 30.3102 47.2905 30.1184 46.9134C29.9267 46.5341 29.8308 46.0877 29.8308 45.5742C29.8308 45.0692 29.9267 44.6261 30.1184 44.2447C30.3123 43.8612 30.5829 43.5629 30.9302 43.3498C31.2775 43.1346 31.6855 43.027 32.1543 43.027C32.4569 43.027 32.7424 43.076 33.0108 43.174C33.2814 43.2699 33.5201 43.419 33.7267 43.6214C33.9355 43.8239 34.0996 44.0817 34.2189 44.3949C34.3382 44.706 34.3979 45.0767 34.3979 45.5071V45.8619H30.3741V45.082H33.2889C33.2868 44.8604 33.2388 44.6634 33.1451 44.4908C33.0513 44.3161 32.9203 44.1786 32.752 44.0785C32.5858 43.9783 32.3919 43.9283 32.1703 43.9283C31.9338 43.9283 31.726 43.9858 31.5471 44.1009C31.3681 44.2138 31.2285 44.3629 31.1284 44.5483C31.0304 44.7315 30.9803 44.9329 30.9782 45.1523V45.8331C30.9782 46.1186 31.0304 46.3636 31.1348 46.5682C31.2392 46.7706 31.3851 46.9261 31.5726 47.0348C31.7601 47.1413 31.9796 47.1946 32.231 47.1946C32.3993 47.1946 32.5517 47.1712 32.688 47.1243C32.8244 47.0753 32.9426 47.0039 33.0428 46.9102C33.1429 46.8164 33.2186 46.7003 33.2697 46.5618L34.35 46.6832C34.2818 46.9687 34.1518 47.218 33.9601 47.4311C33.7704 47.642 33.5275 47.8061 33.2314 47.9233C32.9352 48.0384 32.5964 48.0959 32.215 48.0959ZM35.3767 48V43.0909H36.4985V43.9091H36.5496C36.6391 43.6257 36.7925 43.4073 37.0099 43.2539C37.2293 43.0984 37.4797 43.0206 37.7609 43.0206C37.8248 43.0206 37.8962 43.0238 37.9751 43.0302C38.056 43.0344 38.1231 43.0419 38.1764 43.0526V44.1168C38.1274 44.0998 38.0496 44.0849 37.9431 44.0721C37.8387 44.0572 37.7375 44.0497 37.6395 44.0497C37.4285 44.0497 37.2389 44.0955 37.0706 44.1871C36.9044 44.2766 36.7733 44.4013 36.6775 44.5611C36.5816 44.7209 36.5336 44.9052 36.5336 45.114V48H35.3767ZM39.8136 49.8409C39.6559 49.8409 39.5099 49.8281 39.3757 49.8026C39.2436 49.7791 39.1381 49.7514 39.0593 49.7195L39.3278 48.8182C39.4961 48.8672 39.6463 48.8906 39.7784 48.8885C39.9105 48.8864 40.0266 48.8448 40.1268 48.7638C40.229 48.685 40.3153 48.5529 40.3857 48.3675L40.4847 48.1023L38.7045 43.0909H39.9318L41.0632 46.7983H41.1143L42.2489 43.0909H43.4794L41.5138 48.5945C41.4222 48.8544 41.3008 49.0771 41.1495 49.2624C40.9982 49.4499 40.8129 49.5927 40.5934 49.6907C40.3761 49.7908 40.1161 49.8409 39.8136 49.8409Z" fill="black"/>
</svg>
