<svg width="57" height="57" viewBox="0 0 57 57" fill="none" xmlns="http://www.w3.org/2000/svg">
<path d="M10.0443 0H46.6732C52.2289 0 56.7175 4.62434 56.7175 10.3545V46.6455C56.7175 52.369 52.2289 57 46.6732 57H10.0443C4.48858 57 0 52.3757 0 46.6455V10.3545C0 4.62434 4.48858 0 10.0443 0Z" fill="#122035"/>
<path d="M12.7586 39.9704V14.9051C12.7586 14.7376 12.832 14.6371 12.9921 14.6371C13.3922 14.6371 13.7724 14.6371 14.3126 14.6103C14.8795 14.5835 15.4731 14.5835 16.1067 14.5633C16.747 14.5365 17.4273 14.5365 18.1609 14.5164C18.8946 14.4896 19.6015 14.4896 20.3085 14.4896C22.2493 14.4896 23.85 14.7309 25.1772 15.2469C26.3577 15.6625 27.4449 16.3461 28.3453 17.2441C29.0989 18.0215 29.6925 18.9732 30.0727 20.0187C30.4261 21.0441 30.6129 22.0896 30.6129 23.182C30.6129 25.2797 30.1394 27.0088 29.1923 28.3693C28.2452 29.7365 26.9247 30.7552 25.3907 31.3383C23.7833 31.9482 22.0092 32.1693 20.0751 32.1693C19.5082 32.1693 19.128 32.1693 18.8946 32.1425C18.6611 32.1157 18.3277 32.1157 17.8808 32.1157V39.9369C17.9075 40.1044 17.7874 40.2519 17.6207 40.2787H13.0387C12.852 40.2787 12.752 40.1782 12.752 39.9637M17.9142 19.3418V27.5249C18.2476 27.5517 18.5544 27.5718 18.8345 27.5718H20.0884C21.0088 27.5718 21.9292 27.4244 22.8029 27.1362C23.5566 26.915 24.2235 26.4526 24.7437 25.8427C25.2373 25.2328 25.4774 24.4085 25.4774 23.3362C25.5041 22.5789 25.3106 21.8282 24.9371 21.1715C24.537 20.5415 23.9701 20.0522 23.2831 19.7842C22.4094 19.4155 21.4623 19.2748 20.4952 19.2949C19.8817 19.2949 19.3348 19.2949 18.8879 19.3217C18.4144 19.2949 18.0876 19.3217 17.9208 19.3485" fill="#52A0D8"/>
<path d="M45.3726 26.0371C44.6657 25.6483 43.9054 25.3803 43.105 25.206C42.2313 25.0117 41.3576 24.891 40.4572 24.891C39.9837 24.8642 39.4901 24.9379 39.0366 25.0586C38.7298 25.1323 38.4697 25.2998 38.303 25.5478C38.1829 25.7422 38.1162 25.9834 38.1162 26.2046C38.1162 26.4258 38.2096 26.6402 38.3497 26.8346C38.5631 27.1027 38.8432 27.3238 39.15 27.4914C39.6902 27.7863 40.2638 28.0543 40.8307 28.2956C42.1046 28.7312 43.3384 29.3411 44.4723 30.0716C45.2526 30.581 45.8929 31.2646 46.3397 32.0956C46.7199 32.873 46.9066 33.7242 46.88 34.6021C46.9066 35.7482 46.5732 36.8942 45.9596 37.8392C45.2993 38.811 44.3789 39.5683 43.3118 40.0039C42.1513 40.5132 40.7373 40.7813 39.0366 40.7813C37.9495 40.7813 36.889 40.6808 35.8219 40.4663C34.9949 40.3189 34.1679 40.0508 33.4142 39.6889C33.2475 39.5884 33.1274 39.4208 33.1541 39.2265V34.9909C33.1541 34.9171 33.1808 34.8233 33.2475 34.7697C33.3142 34.7161 33.3875 34.7429 33.4609 34.7965C34.3813 35.3595 35.3484 35.7482 36.3888 35.9894C37.2892 36.2307 38.2296 36.358 39.1767 36.358C40.1237 36.358 40.7107 36.2374 41.1375 36.0162C41.5177 35.8487 41.7778 35.4332 41.7778 34.9909C41.7778 34.6491 41.591 34.3341 41.2109 34.0191C40.8307 33.7041 40.0504 33.3355 38.8966 32.873C37.6894 32.4374 36.5822 31.8476 35.5418 31.1171C34.8081 30.581 34.1946 29.8773 33.7477 29.0462C33.3675 28.2688 33.1808 27.4177 33.2075 26.5598C33.2075 25.5143 33.4943 24.5157 34.0078 23.611C34.6014 22.6392 35.4751 21.855 36.4889 21.3725C37.6027 20.7894 38.9966 20.5214 40.6706 20.5214C41.6377 20.5214 42.6315 20.5951 43.5986 20.7425C44.3055 20.8431 44.9925 21.0374 45.6328 21.3055C45.7261 21.3323 45.8195 21.4261 45.8662 21.5267C45.8929 21.6272 45.9129 21.721 45.9129 21.8215V25.7891C45.9129 25.8896 45.8662 25.9834 45.7928 26.0304C45.5794 26.0773 45.4593 26.0773 45.366 26.0304" fill="#52A0D8"/>
</svg>
